<?xml version="1.0" standalone="no"?>
<!DOCTYPE svg PUBLIC "-//W3C//DTD SVG 20010904//EN"
 "http://www.w3.org/TR/2001/REC-SVG-20010904/DTD/svg10.dtd">
<svg version="1.0" xmlns="http://www.w3.org/2000/svg"
 width="360.000000pt" height="360.000000pt" viewBox="0 0 360.000000 360.000000"
 preserveAspectRatio="xMidYMid meet">
<metadata>
Created by potrace 1.14, written by Peter Selinger 2001-2017
</metadata>
<g transform="translate(0.000000,360.000000) scale(0.100000,-0.100000)"
fill="#000000" stroke="none">
<path d="M0 1800 l0 -1800 1800 0 1800 0 0 1800 0 1800 -1800 0 -1800 0 0
-1800z m1562 686 c4 16 28 25 121 46 l116 27 88 -28 88 -28 -87 5 -88 5 0
-282 c0 -212 3 -281 12 -281 9 0 9 -3 0 -12 -10 -10 -27 3 -82 57 l-69 69 41
-78 c22 -44 34 -75 27 -71 -8 5 -52 40 -99 79 -47 38 -94 76 -105 85 -11 8 46
-52 127 -134 127 -128 149 -147 162 -136 9 8 16 9 16 3 0 -5 -7 -15 -15 -22
-12 -10 -15 -38 -15 -131 l0 -118 -31 9 c-18 5 -33 11 -35 12 -1 2 -10 48 -20
103 -16 98 -18 100 -72 162 -31 34 -58 60 -60 59 -2 -2 6 -22 18 -45 11 -23
17 -41 13 -41 -3 0 -71 29 -150 66 -124 57 -149 65 -192 62 l-50 -3 79 -110
80 -110 136 -61 c74 -34 139 -65 144 -70 5 -5 11 -30 15 -56 7 -44 6 -48 -14
-48 -31 0 -26 -12 17 -40 26 -18 56 -27 102 -31 49 -4 59 -8 43 -13 -21 -8
-23 -15 -23 -77 0 -47 -4 -71 -12 -74 -7 -3 -42 -11 -77 -19 l-63 -15 4 29 c3
22 2 27 -8 19 -25 -21 -36 -68 -29 -124 l7 -56 81 -41 c63 -33 77 -43 60 -46
-17 -2 -23 -10 -23 -27 0 -31 -2 -31 -87 -40 l-71 -7 -39 52 -38 51 3 94 4 94
-64 78 c-46 57 -67 92 -77 131 -7 29 -15 52 -17 50 -2 -2 -8 -42 -13 -88 -8
-77 -7 -90 19 -178 16 -52 25 -91 21 -86 -5 5 -56 80 -114 168 l-105 159 -7
-47 c-4 -25 -10 -46 -14 -46 -3 0 -37 60 -75 133 l-69 133 12 139 c22 258 16
237 85 320 50 60 66 88 83 148 21 69 24 75 61 89 34 13 40 20 45 54 4 21 7 54
7 72 0 17 2 32 4 32 14 0 196 -90 196 -97 1 -4 25 -35 55 -68 l55 -60 -77 140
-76 140 -103 78 c-56 42 -104 77 -107 77 -15 0 -16 -68 -2 -156 l16 -98 -31
-24 c-17 -13 -48 -56 -71 -95 l-40 -72 5 45 c3 25 13 119 22 210 15 144 22
176 53 250 l35 84 166 -173 c133 -138 168 -170 172 -155z m258 -1296 c13 -8
12 -10 -2 -10 -11 0 -18 -8 -18 -20 0 -17 -7 -20 -42 -20 -60 0 -88 -10 -88
-29 0 -14 -2 -14 -10 -1 -5 8 -10 25 -10 37 0 18 7 23 38 29 20 3 53 10 72 14
19 4 37 8 40 9 3 0 12 -4 20 -9z m-20 -385 c0 -64 0 -64 33 -74 27 -8 19 -9
-48 -10 -44 0 -85 3 -90 7 -6 4 -28 28 -48 53 l-37 47 77 20 c118 31 113 33
113 -43z"/>
</g>
</svg>
